<svg  fill="none" xmlns="http://www.w3.org/2000/svg" display="none">
<path  d="M19.4003 12.1917L17.562 10.7542C17.5853 10.5325 17.6053 10.2734 17.6053 9.99918C17.6053 9.725 17.5862 9.46586 17.562 9.24418L19.402 7.80586C19.7437 7.53586 19.837 7.05668 19.6195 6.65754L17.7078 3.35C17.5037 2.97668 17.0562 2.785 16.602 2.9525L14.4328 3.82332C14.017 3.52332 13.5812 3.27 13.1303 3.0675L12.8003 0.76668C12.7462 0.33 12.3662 0 11.917 0H8.0837C7.63452 0 7.25538 0.33 7.20202 0.76L6.8712 3.06918C6.43452 3.26586 6.00538 3.51586 5.5712 3.825L3.3962 2.95168C2.98866 2.79418 2.50116 2.97082 2.29866 3.3425L0.384521 6.65418C0.1587 7.03586 0.252021 7.53168 0.6012 7.80836L2.43952 9.24586C2.41034 9.52668 2.3962 9.77086 2.3962 10C2.3962 10.2292 2.41038 10.4734 2.43952 10.755L0.599521 12.1934C0.257841 12.4642 0.165341 12.9434 0.382841 13.3417L2.29452 16.6492C2.4987 17.0217 2.94202 17.215 3.40034 17.0467L5.56952 16.1759C5.98452 16.475 6.42034 16.7284 6.8712 16.9317L7.2012 19.2317C7.25534 19.67 7.63452 20 8.08452 20H11.9178C12.367 20 12.747 19.67 12.8003 19.24L13.1312 16.9317C13.5678 16.7342 13.9962 16.485 14.4312 16.175L16.6062 17.0483C16.7112 17.0891 16.8203 17.11 16.9328 17.11C17.2562 17.11 17.5537 16.9333 17.7037 16.6583L19.6237 13.3333C19.837 12.9433 19.7437 12.4642 19.4003 12.1917ZM10.0003 13.3333C8.16202 13.3333 6.66702 11.8383 6.66702 10C6.66702 8.16168 8.16202 6.66668 10.0003 6.66668C11.8387 6.66668 13.3337 8.16168 13.3337 10C13.3337 11.8383 11.8387 13.3333 10.0003 13.3333Z" id="preferences"/>
<path d="M10 0C4.47746 0 0 4.47715 0 10C0 15.5229 4.47746 20 10 20C15.5229 20 20 15.5229 20 10C20 4.47715 15.5229 0 10 0ZM10.9286 13.8571H8.92859V8.7143H10.9286V13.8571ZM9.92859 7.85711C9.37629 7.85711 8.92859 7.40969 8.92859 6.85711C8.92859 6.30453 9.37629 5.85711 9.92859 5.85711C10.4809 5.85711 10.9286 6.30453 10.9286 6.85711C10.9286 7.40973 10.4809 7.85711 9.92859 7.85711Z" id="info"/>
<path d="M7.49993 9.9999C7.49993 8.6216 8.6216 7.49993 9.9999 7.49993H13.3332V0.833312C13.3332 0.373317 12.9607 0 12.4999 0H0.833312C0.372496 0 0 0.373317 0 0.833312V19.1665C0 19.6264 0.372496 19.9998 0.833312 19.9998H12.4999C12.9607 19.9998 13.3332 19.6264 13.3332 19.1665V13.3332V12.4999H9.9999C8.6216 12.4999 7.49993 11.3782 7.49993 9.9999Z" id="login"/>
<path d="M10.8118 5.52635C10.8143 5.52327 10.8164 5.51994 10.8189 5.51682C10.8332 5.49877 10.847 5.48038 10.8598 5.46116C10.8658 5.45217 10.8709 5.4428 10.8765 5.43362C10.885 5.41983 10.8936 5.40616 10.9012 5.39186C10.9075 5.38014 10.9128 5.36803 10.9185 5.35608C10.9243 5.3437 10.9305 5.33151 10.9358 5.31881C10.9415 5.30514 10.9461 5.2912 10.951 5.27733C10.955 5.26581 10.9595 5.25448 10.9631 5.24272C10.968 5.22639 10.9718 5.20987 10.9758 5.19335C10.9781 5.18366 10.9809 5.17417 10.9829 5.16436C10.9874 5.14167 10.9906 5.11882 10.9933 5.09589C10.9938 5.09194 10.9946 5.08811 10.995 5.08413C11.0006 5.02811 11.0006 4.97163 10.995 4.91562C10.9946 4.91163 10.9937 4.9078 10.9933 4.90386C10.9906 4.88093 10.9874 4.85808 10.9829 4.83538C10.9809 4.82558 10.9781 4.81608 10.9758 4.8064C10.9718 4.78987 10.968 4.77331 10.9631 4.75702C10.9595 4.74527 10.955 4.73394 10.951 4.72241C10.946 4.70855 10.9415 4.69456 10.9358 4.68093C10.9305 4.66823 10.9243 4.65605 10.9185 4.64366C10.9128 4.63171 10.9075 4.61964 10.9012 4.60788C10.8936 4.59359 10.885 4.57991 10.8765 4.56613C10.8709 4.55695 10.8658 4.54757 10.8598 4.53859C10.847 4.51937 10.8332 4.50097 10.8189 4.48292C10.8164 4.4798 10.8143 4.47652 10.8118 4.47339C10.793 4.45039 10.7731 4.42843 10.752 4.40757L7.42177 1.07737C7.09595 0.751554 6.56927 0.751554 6.24346 1.07737C5.91764 1.40319 5.91764 1.92986 6.24346 2.25568L8.15426 4.16648H0.999328C0.538512 4.16648 0.166016 4.5398 0.166016 4.99979C0.166016 5.45979 0.538512 5.83311 0.999328 5.83311H8.15426L6.24346 7.74391C5.91764 8.06973 5.91764 8.5964 6.24346 8.92222C6.40596 9.08472 6.61927 9.16639 6.83263 9.16639C7.04595 9.16639 7.25931 9.08472 7.4218 8.92222L10.752 5.59201C10.773 5.57131 10.793 5.54936 10.8118 5.52635Z" id="arrow">
<path d="M5.00047 0.499999C5.15422 0.499999 5.30122 0.563 5.40697 0.674L9.34447 4.799C9.68572 5.156 9.43222 5.75 8.93797 5.75L6.87547 5.75L6.87547 10.0625C6.87547 10.5793 6.45472 11 5.93797 11L4.06297 11C3.54622 11 3.12547 10.5793 3.12547 10.0625L3.12547 5.75L1.06297 5.75C0.568717 5.75 0.315217 5.156 0.656468 4.799L4.59397 0.674C4.69972 0.563 4.84672 0.499999 5.00047 0.499999Z" fill="#3744BD" id="arrow-top"/>
<path d="M16.6875 3.5H1.3125C0.58875 3.5 0 2.91125 0 2.1875V1.8125C0 1.08875 0.58875 0.5 1.3125 0.5H16.6875C17.4112 0.5 18 1.08875 18 1.8125V2.1875C18 2.91125 17.4112 3.5 16.6875 3.5Z" fill="#3744BD" id="arrow-line"/>
<path d="M11.0805 5.30294C11.9249 5.79048 11.9249 7.00933 11.0805 7.49687L2.88047 12.2311C2.03602 12.7187 0.980468 12.1093 0.980468 11.1342L0.980469 1.66563C0.980469 0.690547 2.03602 0.0811241 2.88047 0.568664L11.0805 5.30294Z" fill="#828282" id="play"/>
<path fill-rule="evenodd" clip-rule="evenodd" d="M0.166016 2.49984C0.166016 1.48732 0.986827 0.666504 1.99935 0.666504C3.01187 0.666504 3.83268 1.48732 3.83268 2.49984C3.83268 3.51236 3.01187 4.33317 1.99935 4.33317C0.986827 4.33317 0.166016 3.51236 0.166016 2.49984Z" fill="white" id="dot"/>
</svg>



